<?xml version="1.0" encoding="UTF-8"?>
<svg xmlns="http://www.w3.org/2000/svg" viewBox="0 0 900 560" role="img" aria-labelledby="t d">
  <title id="t">Kot Miran sketch</title>
  <desc id="d">Practice sketch map. Not a survey. No people are shown.</desc>
  <rect width="900" height="560" fill="#f6f1e6"/>
  <rect x="8" y="8" width="884" height="544" fill="none" stroke="#1c1915" stroke-width="2"/>
  <text x="24" y="36" font-size="18" font-weight="700" font-family="Segoe UI, sans-serif" fill="#1c1915">Kot Miran sketch</text>
  <text x="24" y="54" font-size="12" font-family="Segoe UI, sans-serif" fill="#5c5346">Practice sketch. Not to survey scale. North is up.</text>
  <polygon points="48,78 58,108 38,108" fill="#1c1915"/>
  <text x="44" y="124" font-size="12" font-weight="700" font-family="Segoe UI, sans-serif">N</text>
  <line x1="24" y1="520" x2="164" y2="520" stroke="#1c1915" stroke-width="3"/>
  <line x1="24" y1="512" x2="24" y2="528" stroke="#1c1915" stroke-width="2"/>
  <line x1="164" y1="512" x2="164" y2="528" stroke="#1c1915" stroke-width="2"/>
  <text x="24" y="508" font-size="12" font-family="Segoe UI, sans-serif">Bar length is not a ground distance. Read the km labels.</text>
  <rect x="720" y="48" width="164" height="176" fill="#fffaf0" stroke="#1c1915" stroke-width="1.5"/>
  <text x="732" y="68" font-size="12" font-weight="700" font-family="Segoe UI, sans-serif">Legend</text>
  <line x1="742" y1="78" x2="760" y2="78" stroke="#2f3438" stroke-width="6"/><line x1="742" y1="78" x2="760" y2="78" stroke="#fff" stroke-width="1.2"/><text x="768" y="82" font-size="12" font-family="Segoe UI, sans-serif" fill="#1c1915">Metalled road</text><line x1="742" y1="106" x2="760" y2="106" stroke="#4b5563" stroke-width="3" stroke-dasharray="2 4"/><text x="768" y="110" font-size="12" font-family="Segoe UI, sans-serif" fill="#1c1915">Boat route</text><line x1="742" y1="134" x2="760" y2="134" stroke="#3b82c4" stroke-width="6" stroke-linecap="round"/><text x="768" y="138" font-size="12" font-family="Segoe UI, sans-serif" fill="#1c1915">River</text><rect x="742" y="157" width="18" height="10" fill="#6b4423" stroke="#1c1915"/><text x="768" y="166" font-size="12" font-family="Segoe UI, sans-serif" fill="#1c1915">Landing mark</text><path d="M742 184 L756 196 M756 184 L742 196" stroke="#9b2c2c" stroke-width="2"/><text x="768" y="194" font-size="12" font-family="Segoe UI, sans-serif" fill="#1c1915">Closed footbridge</text>
  
<path d="M 430 80 L 450 180 L 420 280 L 450 400 L 430 500" fill="none" stroke="#7eb6d9" stroke-width="16" stroke-linecap="round" stroke-linejoin="round"/>
<path d="M 300 250 L 180 250 L 180 120 L 150 120" fill="none" stroke="#2f3438" stroke-width="8" stroke-linejoin="round" stroke-linecap="round"/><path d="M 300 250 L 180 250 L 180 120 L 150 120" fill="none" stroke="#f6f1e6" stroke-width="1.4" stroke-linejoin="round"/>
<path d="M 300 230 L 430 200" fill="none" stroke="#4b5563" stroke-width="3" stroke-dasharray="2 6" stroke-linejoin="round" stroke-linecap="round"/>
<rect x="412" y="188" width="36" height="16" fill="#6b4423" stroke="#1c1915"/>
<path d="M470 300 l14 14 M484 300 l-14 14" stroke="#9b2c2c" stroke-width="3"/><text x="488" y="312" font-size="12" font-weight="700" fill="#9b2c2c" font-family="Segoe UI, sans-serif">Footbridge closed</text>
<rect x="210" y="230" width="132" height="48" rx="2" fill="#fff8e8" stroke="#1c1915" stroke-width="1.6"/><text x="218" y="250" font-size="13" font-weight="700" font-family="Segoe UI, sans-serif" fill="#1c1915">BASE</text><text x="218" y="266" font-size="11" font-family="Segoe UI, sans-serif" fill="#5c5346">You are here. Bags, jeep, boat.</text>
<rect x="500" y="150" width="132" height="48" rx="2" fill="#fff8e8" stroke="#1c1915" stroke-width="1.6"/><text x="508" y="170" font-size="13" font-weight="700" font-family="Segoe UI, sans-serif" fill="#1c1915">HAMLET</text><text x="508" y="186" font-size="11" font-family="Segoe UI, sans-serif" fill="#5c5346">2 injured. Boat landing.</text>
<rect x="40" y="78" width="132" height="48" rx="2" fill="#fff8e8" stroke="#1c1915" stroke-width="1.6"/><text x="48" y="98" font-size="13" font-weight="700" font-family="Segoe UI, sans-serif" fill="#1c1915">HOSPITAL</text><text x="48" y="114" font-size="11" font-family="Segoe UI, sans-serif" fill="#5c5346">18 km metalled</text>
<text x="200" y="210" font-size="12" font-weight="700" fill="#1c1915" font-family="Segoe UI, sans-serif">18 km metalled · jeep 36 km/h</text>
<text x="300" y="190" font-size="12" font-weight="700" fill="#1c1915" font-family="Segoe UI, sans-serif">Boat 2 km · 12 km/h</text>

</svg>
